<?xml version="1.0" encoding="utf-8"?>
<!-- Generator: Adobe Illustrator 17.1.0, SVG Export Plug-In . SVG Version: 6.00 Build 0)  -->
<!DOCTYPE svg PUBLIC "-//W3C//DTD SVG 1.1//EN" "http://www.w3.org/Graphics/SVG/1.1/DTD/svg11.dtd">
<svg version="1.1" id="Ebene_1" xmlns="http://www.w3.org/2000/svg" xmlns:xlink="http://www.w3.org/1999/xlink" x="0px" y="0px"
	 viewBox="0 0 375 86.1" enable-background="new 0 0 375 86.1" xml:space="preserve">
<g>
	<path fill="#010101" d="M33.4,28.6c-10.3,0-18.7,8.4-18.7,18.7S23.1,66,33.4,66s18.7-8.4,18.7-18.7S43.8,28.6,33.4,28.6z
		 M33.4,61.4c-7.8,0-14.1-6.3-14.1-14.1s6.3-14.2,14.1-14.2s14.1,6.3,14.1,14.1S41.2,61.4,33.4,61.4z"/>
	<path fill="#010101" d="M262.1,61.4c-7.7,0-13.9-6.1-14.1-13.7h-4.6c0.2,10.2,8.5,18.3,18.7,18.3c7.5,0,14-4.5,17-10.9l-4.2-1.9
		C272.7,58,267.8,61.4,262.1,61.4z"/>
	<path fill="#010101" d="M248,47.3h-4.6c0,0.1,0,0.3,0,0.4h4.6C248,47.6,248,47.4,248,47.3z"/>
	<rect x="14.7" y="16" fill="#010101" width="4.6" height="49.2"/>
	<path fill="#010101" d="M137.3,28.6c-10.3,0-18.7,8.4-18.7,18.7s8.4,18.7,18.7,18.7S156,57.7,156,47.3S147.6,28.6,137.3,28.6z
		 M137.3,61.4c-7.8,0-14.1-6.3-14.1-14.1s6.3-14.1,14.1-14.1s14.1,6.3,14.1,14.1S145.1,61.4,137.3,61.4z"/>
	<path fill="#010101" d="M248,47.3c0-7.8,6.3-14.1,14.1-14.1c7.8,0,14.1,6.3,14.1,14.1c0,0.1,0,0.3,0,0.4h4.6c0-0.1,0-0.3,0-0.4
		c0-10.3-8.4-18.7-18.7-18.7c-10.3,0-18.7,8.4-18.7,18.7c0,0.1,0,0.3,0,0.4h4.6C248,47.6,248,47.4,248,47.3z"/>
	<rect x="118.6" y="16" fill="#010101" width="4.6" height="49.2"/>
	<path fill="#010101" d="M350.7,28.2c-10.3,0-18.7,8.4-18.7,18.7s8.4,18.7,18.7,18.7c10.3,0,18.7-8.4,18.7-18.7S361,28.2,350.7,28.2
		z M350.7,61.1c-7.8,0-14.1-6.3-14.1-14.1s6.3-14.1,14.1-14.1s14.1,6.3,14.1,14.1S358.5,61.1,350.7,61.1z"/>
	<rect x="332" y="29.5" fill="#010101" width="4.6" height="48.3"/>
	<rect x="245.3" y="43.8" fill="#010101" width="33.1" height="3.9"/>
	<path fill="#010101" d="M305.4,61.4c-7.7,0-13.9-6.1-14.1-13.7h-4.6c0.2,10.2,8.5,18.3,18.7,18.3c7.5,0,14-4.5,17-10.9l-4.2-1.9
		C316,58,311.1,61.4,305.4,61.4z"/>
	<path fill="#010101" d="M291.3,47.3c0-7.8,6.3-14.1,14.1-14.1s14.1,6.3,14.1,14.1c0,0.1,0,0.3,0,0.4h4.6c0-0.1,0-0.3,0-0.4
		c0-10.3-8.4-18.7-18.7-18.7c-10.3,0-18.7,8.4-18.7,18.7c0,0.1,0,0.3,0,0.4h4.6C291.3,47.6,291.3,47.4,291.3,47.3z"/>
	<rect x="288.6" y="43.8" fill="#010101" width="33.1" height="3.9"/>
	<polyline fill="#010101" points="224.2,54.6 235.3,29.5 240.1,29.5 224.2,65.3 	"/>
	<line fill="none" x1="213" y1="29.5" x2="224.2" y2="54.6"/>
	<polyline fill="#010101" points="200.8,54.6 189.7,29.5 184.8,29.5 200.8,65.3 	"/>
	<polyline fill="#010101" points="213,29.5 224.2,54.6 224.2,65.3 213,40.2 211.9,40.2 200.8,65.3 200.8,54.6 211.9,29.5 	"/>
	<path fill="#010101" d="M160.3,60.8l3.1-3.2c0,0,3.7,3.9,7.6,3.9c3.9,0,6.2-2.5,6.2-5.1c0-3.4-1.2-5.4-6.9-8.1
		c-8.3-4-8.1-9.5-8.1-10.6c0,0,0.2-9.4,9.5-9.4c6.6,0,10.2,5.4,10.2,5.4l-3,3.2c0,0-3.3-4.3-7.1-4.3s-5.4,2.6-5.4,5.2
		c0,1.9,1.9,4.3,6.6,6.7c4.7,2.4,8.9,5.4,8.9,10.8s-3.8,10.6-10.7,10.6C163.4,66,160.3,60.8,160.3,60.8z"/>
	<path fill="#010101" d="M84,15.8C70,15.8,58.8,27.1,58.8,41c0,13.9,11.3,25.2,25.2,25.2s25.2-11.3,25.2-25.2
		C109.1,27.1,97.9,15.8,84,15.8z M84,61.6c-11.4,0-20.6-9.2-20.6-20.6S72.6,20.4,84,20.4s20.6,9.2,20.6,20.6S95.3,61.6,84,61.6z"/>
	<circle fill="#010101" cx="84" cy="30.7" r="10"/>
</g>
</svg>
