<?xml version="1.0" encoding="utf-8"?>
<!-- Generator: Adobe Illustrator 17.1.0, SVG Export Plug-In . SVG Version: 6.00 Build 0)  -->
<!DOCTYPE svg PUBLIC "-//W3C//DTD SVG 1.1//EN" "http://www.w3.org/Graphics/SVG/1.1/DTD/svg11.dtd">
<svg version="1.1" id="Layer_1" xmlns="http://www.w3.org/2000/svg" xmlns:xlink="http://www.w3.org/1999/xlink" x="0px" y="0px"
	 viewBox="0 0 360 72" enable-background="new 0 0 360 72" xml:space="preserve">
<path fill="#010101" d="M18.9,46l2.8-5.7c1.4,1.4,2.7,2.2,3.8,2.2c1,0,1.5-0.3,1.5-1c0-0.6-0.7-1.1-2-1.5c-3.6-1.2-5.4-3.1-5.4-5.7
	c0-1.9,0.8-3.5,2.4-4.8c1.6-1.3,3.6-1.9,6.1-1.9c2,0,4,0.6,6.1,1.8l-2.6,5.8c-1.3-1.2-2.3-1.8-3.1-1.8c-0.8,0-1.2,0.3-1.2,0.9
	c0,0.6,0.8,1.3,2.3,1.8c1.9,0.7,3.3,1.4,4,2.2c0.7,0.8,1.1,1.9,1.1,3.2c0,2-0.8,3.6-2.4,4.8c-1.6,1.3-3.6,1.9-6,1.9
	c-1.2,0-2.3-0.2-3.4-0.4c-0.5-0.1-1.1-0.4-1.8-0.6C20.4,46.8,19.7,46.4,18.9,46z"/>
<path fill="#010101" d="M44.4,57.3h-7.7V27.5h7.9l-0.4,2.9c0.3-0.6,0.6-1.1,1-1.6c0.3-0.4,0.7-0.8,1.1-1c0.4-0.2,0.8-0.4,1.2-0.4
	c0.4,0,0.9,0,1.5,0c2,0,3.6,1,4.8,2.9c1.2,1.9,1.8,4.4,1.8,7.5c0,3.2-0.6,5.7-1.8,7.5c-1.2,1.8-2.8,2.8-4.8,2.8
	c-1.9,0-3.5-1.1-4.9-3.2c0.1,0.6,0.1,1.2,0.1,1.7c0,0.5,0.1,1.1,0.1,1.7V57.3z M48,37.7c0-1.3-0.2-2.2-0.5-2.9c-0.3-0.7-0.8-1-1.3-1
	c-1.2,0-1.8,1.3-1.8,4.1c0,2.8,0.6,4.1,1.7,4.1c0.6,0,1-0.4,1.4-1.1C47.8,40.1,48,39.1,48,37.7z"/>
<path fill="#010101" d="M67.2,21.2c0,1.2-0.4,2.2-1.3,3.1c-0.9,0.9-1.9,1.3-3.1,1.3c-1.2,0-2.3-0.4-3.2-1.3c-0.9-0.9-1.3-2-1.3-3.2
	c0-1.2,0.4-2.3,1.3-3.1c0.9-0.9,1.9-1.3,3.1-1.3c1.3,0,2.3,0.4,3.2,1.3C66.7,18.8,67.2,19.9,67.2,21.2z M66.5,48.2h-7.7V27.5h7.7
	V48.2z"/>
<path fill="#010101" d="M81.3,48.2l-3-8c-0.1-0.4-0.4-1.1-0.7-2.3v10.4H70V16h7.7v20.8c0.2-0.5,0.3-1.1,0.5-1.6
	c0.2-0.5,0.4-1.1,0.6-1.6l2.5-6.1h8.3L84.5,37l5.6,11.2H81.3z"/>
<path fill="#010101" d="M102,41.2l7.5,0.2c-0.5,2.3-1.6,4-3.1,5.1c-1.5,1.1-3.6,1.7-6,1.7c-3,0-5.3-0.9-6.9-2.6
	c-1.7-1.8-2.5-4.2-2.5-7.3c0-3.1,0.9-5.7,2.7-7.7c1.8-2,4.1-3,6.9-3c2.8,0,5.1,1,6.7,2.9c1.7,1.9,2.5,4.5,2.5,7.7l0,1.3l-11.2,0.2
	c0.1,1.8,0.7,2.8,1.8,2.8C101.1,42.4,101.7,42,102,41.2z M102.1,35.3c0-0.3,0-0.6-0.1-0.8c-0.1-0.3-0.2-0.5-0.4-0.7
	c-0.2-0.2-0.3-0.3-0.6-0.4c-0.2-0.1-0.5-0.2-0.7-0.2c-0.5,0-1,0.2-1.3,0.6c-0.3,0.4-0.5,0.9-0.5,1.5H102.1z"/>
<path fill="#010101" d="M131.6,48.2h-7.7V37.3c0-0.9-0.1-1.6-0.4-2c-0.2-0.4-0.6-0.5-1.2-0.5c-1.4,0-2,1-2,3v10.4h-7.7V27.5h7.7
	c0,0.5,0,1,0,1.4c0,0.4,0,0.8-0.1,1.2l-0.1,1.3c1.3-2.6,3.3-3.9,5.8-3.9c1.8,0,3.2,0.6,4.1,1.8c1,1.2,1.5,2.9,1.5,5V48.2z"/>
<path fill="#010101" d="M149.8,48.2h-16.5l5-10.7c0.2-0.5,0.5-1.1,0.8-1.7c0.3-0.6,0.7-1.3,1.1-2h-5.8v-6.2H151l-4.9,10.5
	c-0.6,1.2-1.2,2.5-2,3.9h5.7V48.2z"/>
<path fill="#010101" d="M161.8,21.2c0,1.2-0.4,2.2-1.3,3.1c-0.9,0.9-2,1.3-3.1,1.3c-1.2,0-2.3-0.4-3.2-1.3c-0.9-0.9-1.3-2-1.3-3.2
	c0-1.2,0.4-2.3,1.3-3.1c0.9-0.9,2-1.3,3.1-1.3c1.3,0,2.3,0.4,3.2,1.3C161.4,18.8,161.8,19.9,161.8,21.2z M161.2,48.2h-7.7V27.5h7.7
	V48.2z"/>
<path fill="#010101" d="M175.3,41.2l7.5,0.2c-0.5,2.3-1.6,4-3.1,5.1c-1.5,1.1-3.6,1.7-6.1,1.7c-2.9,0-5.3-0.9-6.9-2.6
	c-1.7-1.8-2.5-4.2-2.5-7.3c0-3.1,0.9-5.7,2.7-7.7c1.8-2,4.1-3,6.9-3c2.8,0,5.1,1,6.7,2.9c1.7,1.9,2.5,4.5,2.5,7.7l0,1.3l-11.2,0.2
	c0.1,1.8,0.7,2.8,1.8,2.8C174.4,42.4,175,42,175.3,41.2z M175.4,35.3c0-0.3,0-0.6-0.1-0.8c-0.1-0.3-0.2-0.5-0.4-0.7
	c-0.2-0.2-0.3-0.3-0.6-0.4c-0.2-0.1-0.5-0.2-0.7-0.2c-0.5,0-1,0.2-1.3,0.6c-0.3,0.4-0.5,0.9-0.5,1.5H175.4z"/>
<path fill="#010101" d="M191.2,16v32.2h-4.3V16H191.2z"/>
<path fill="#010101" d="M210.3,29.6h4.3v18.6h-4.3v-1.9c-1.8,1.6-3.7,2.5-5.7,2.5c-2.6,0-4.7-0.9-6.4-2.8c-1.7-1.9-2.5-4.3-2.5-7.1
	c0-2.8,0.8-5.1,2.5-7c1.7-1.9,3.7-2.8,6.2-2.8c2.2,0,4.1,0.9,5.8,2.7V29.6z M200.1,38.8c0,1.8,0.5,3.2,1.4,4.3
	c1,1.1,2.2,1.7,3.7,1.7c1.6,0,2.9-0.5,3.8-1.6c1-1.1,1.5-2.6,1.5-4.3c0-1.7-0.5-3.2-1.5-4.3c-1-1.1-2.3-1.7-3.8-1.7
	c-1.5,0-2.7,0.6-3.7,1.7C200.6,35.8,200.1,37.2,200.1,38.8z"/>
<path fill="#010101" d="M224.3,16v15.8c1.7-1.8,3.7-2.7,5.8-2.7c2.5,0,4.6,0.9,6.2,2.8c1.7,1.9,2.5,4.2,2.5,6.9
	c0,2.9-0.8,5.2-2.5,7.1c-1.7,1.9-3.8,2.8-6.3,2.8c-2.1,0-4.1-0.8-5.8-2.5v1.9H220V16H224.3z M234.5,39c0-1.8-0.5-3.2-1.5-4.3
	c-1-1.1-2.2-1.7-3.7-1.7c-1.6,0-2.9,0.6-3.8,1.7c-1,1.1-1.5,2.5-1.5,4.3c0,1.8,0.5,3.2,1.4,4.3c1,1.1,2.2,1.7,3.8,1.7
	c1.5,0,2.7-0.6,3.7-1.7C234,42.1,234.5,40.7,234.5,39z"/>
<path fill="#010101" d="M254.2,32.8l-3.5,1.9c-0.6-1.1-1.3-1.7-2.1-1.7c-0.4,0-0.7,0.1-1,0.4c-0.3,0.3-0.4,0.6-0.4,1
	c0,0.7,0.8,1.4,2.5,2.1c2.3,1,3.8,1.9,4.6,2.7c0.8,0.8,1.2,1.9,1.2,3.3c0,1.8-0.7,3.3-2,4.5c-1.3,1.1-2.8,1.7-4.6,1.7
	c-3.1,0-5.3-1.5-6.6-4.5l3.7-1.7c0.5,0.9,0.9,1.5,1.2,1.7c0.5,0.5,1.1,0.7,1.9,0.7c1.4,0,2.2-0.7,2.2-2c0-0.8-0.6-1.5-1.7-2.1
	c-0.4-0.2-0.9-0.4-1.3-0.6c-0.4-0.2-0.9-0.4-1.3-0.6c-1.2-0.6-2.1-1.2-2.6-1.8c-0.7-0.8-1-1.8-1-3c0-1.6,0.6-2.9,1.7-4
	c1.1-1.1,2.5-1.6,4.1-1.6C251.3,29.1,253,30.3,254.2,32.8z"/>
<path fill="#010101" d="M259.6,39.9c0-1,0.4-1.8,1.1-2.5c0.7-0.7,1.6-1.1,2.6-1.1c1,0,1.9,0.4,2.6,1.1c0.7,0.7,1.1,1.6,1.1,2.6
	c0,1-0.4,1.9-1.1,2.6c-0.7,0.7-1.6,1-2.6,1c-1,0-1.9-0.4-2.6-1C260,41.9,259.6,41,259.6,39.9z"/>
<path fill="#010101" d="M285.7,30.4v5.7c-1-1.2-1.9-2-2.6-2.5c-0.8-0.5-1.7-0.7-2.7-0.7c-1.6,0-3,0.6-4,1.7
	c-1.1,1.1-1.6,2.5-1.6,4.2c0,1.7,0.5,3.2,1.5,4.3c1,1.1,2.4,1.7,4,1.7c1,0,1.9-0.2,2.7-0.7c0.8-0.4,1.7-1.3,2.7-2.5v5.7
	c-1.7,0.9-3.5,1.3-5.2,1.3c-2.9,0-5.3-0.9-7.2-2.8c-1.9-1.9-2.9-4.2-2.9-7c0-2.8,1-5.1,2.9-7c2-1.9,4.4-2.9,7.2-2.9
	C282.4,29.1,284.1,29.5,285.7,30.4z"/>
<path fill="#010101" d="M289,38.7c0-2.7,1-5,2.9-6.8c1.9-1.9,4.3-2.8,7-2.8c2.8,0,5.1,0.9,7,2.8c1.9,1.9,2.9,4.2,2.9,7
	c0,2.8-1,5.1-2.9,7c-1.9,1.9-4.3,2.8-7.1,2.8c-2.8,0-5.1-0.9-7-2.9C290,43.9,289,41.6,289,38.7z M293.4,38.8c0,1.9,0.5,3.3,1.5,4.4
	c1,1.1,2.4,1.6,4,1.6c1.7,0,3-0.5,4-1.6c1-1.1,1.5-2.5,1.5-4.3c0-1.8-0.5-3.2-1.5-4.3c-1-1.1-2.4-1.6-4-1.6c-1.6,0-3,0.5-4,1.6
	C293.9,35.7,293.4,37.1,293.4,38.8z"/>
<path fill="#010101" d="M313.4,29.6h4.3v1.7c0.8-0.9,1.5-1.4,2.1-1.8c0.6-0.3,1.4-0.5,2.3-0.5c2.1,0,3.8,0.9,5,2.7
	c1.3-1.8,3.2-2.7,5.5-2.7c4.2,0,6.3,2.5,6.3,7.6v11.5h-4.3V37.8c0-1.8-0.2-3-0.7-3.8c-0.4-0.8-1.2-1.1-2.2-1.1c-1.2,0-2,0.4-2.6,1.3
	c-0.5,0.9-0.8,2.3-0.8,4.3v9.6H324V37.9c0-3.3-1-5-2.9-5c-1.2,0-2.1,0.5-2.6,1.4c-0.6,0.9-0.8,2.3-0.8,4.3v9.6h-4.3V29.6z"/>
<path fill="#010101" d="M15.4,63.3c0-0.7,0.3-1.3,0.8-1.8c0.5-0.5,1.1-0.8,1.9-0.8c0.7,0,1.3,0.3,1.9,0.8c0.5,0.5,0.8,1.1,0.8,1.9
	c0,0.7-0.3,1.4-0.8,1.9C19.4,65.7,18.8,66,18,66c-0.8,0-1.4-0.3-1.9-0.8C15.6,64.7,15.4,64.1,15.4,63.3z"/>
<polyline fill="none" stroke="#010101" stroke-width="3" points="62.8,20.2 62.8,7 157.3,7 157.3,20.4 "/>
<polyline fill="none" stroke="#010101" stroke-width="3" points="263.2,39.8 263.2,16 343.8,16 343.8,63.3 17.7,63.3 "/>
</svg>
